grf
version=1
nRows=11
nColumns=37
inDegrees=no
endheader
time	ground_force_1_vx	ground_force_1_vy	ground_force_1_vz	ground_force_1_px	ground_force_1_py	ground_force_1_pz	ground_moment_1_mx	ground_moment_1_my	ground_moment_1_mz	ground_force_2_vx	ground_force_2_vy	ground_force_2_vz	ground_force_2_px	ground_force_2_py	ground_force_2_pz	ground_moment_2_mx	ground_moment_2_my	ground_moment_2_mz	ground_force_3_vx	ground_force_3_vy	ground_force_3_vz	ground_force_3_px	ground_force_3_py	ground_force_3_pz	ground_moment_3_mx	ground_moment_3_my	ground_moment_3_mz	ground_force_4_vx	ground_force_4_vy	ground_force_4_vz	ground_force_4_px	ground_force_4_py	ground_force_4_pz	ground_moment_4_mx	ground_moment_4_my	ground_moment_4_mz
      1.78000000	      0.00000000	     -0.00000000	      0.00000000	      0.00000000	      0.00000000	      0.00000000	      0.00000000	      0.00000000	      0.00000000	      4.79074669	     33.00484467	   -401.14404297	   -384.44419343	  -1081.89365742	      0.00000000	      0.00000000	      0.00000000	    622.15133198	     -3.20334338	    -29.88864298	   -325.75848389	   -351.18357182	   -736.05890664	      0.00000000	      0.00000000	     -0.00000000	  -1780.23005548	      0.00000000	     -0.00000000	      0.00000000	      0.00000000	      0.00000000	      0.00000000	      0.00000000	      0.00000000	      0.00000000
      1.79000000	      0.00000000	     -0.00000000	      0.00000000	      0.00000000	      0.00000000	      0.00000000	      0.00000000	      0.00000000	      0.00000000	      4.41598558	     33.11642075	   -399.14627075	   -385.21408142	  -1080.63320380	      0.00000000	     -0.00000000	      0.00000000	    778.36704888	     -2.97649758	    -29.14999554	   -324.15368652	   -351.51768280	   -736.87756543	      0.00000000	      0.00000000	     -0.00000000	  -1931.63500227	      0.00000000	     -0.00000000	      0.00000000	      0.00000000	      0.00000000	      0.00000000	      0.00000000	      0.00000000	      0.00000000
      1.80000000	      0.00000000	     -0.00000000	      0.00000000	      0.00000000	      0.00000000	      0.00000000	      0.00000000	      0.00000000	      0.00000000	      3.60874486	     33.10766983	   -398.59982300	   -385.62030466	  -1080.74696353	      0.00000000	      0.00000000	      0.00000000	    709.91542609	     -2.81216778	    -28.85902762	   -319.96282959	   -351.83863317	   -736.57227225	      0.00000000	      0.00000000	     -0.00000000	  -1817.79889377	      0.00000000	     -0.00000000	      0.00000000	      0.00000000	      0.00000000	      0.00000000	      0.00000000	      0.00000000	      0.00000000
      1.81000000	      0.00000000	     -0.00000000	      0.00000000	      0.00000000	      0.00000000	      0.00000000	      0.00000000	      0.00000000	      0.00000000	      3.76035857	     32.74596786	   -398.38696289	   -385.47391979	  -1081.77989181	      0.00000000	      0.00000000	      0.00000000	    755.06844857	     -2.21777212	    -28.54969387	   -315.94866943	   -352.11127010	   -737.28805845	      0.00000000	      0.00000000	     -0.00000000	  -1930.20449224	      0.00000000	     -0.00000000	      0.00000000	      0.00000000	      0.00000000	      0.00000000	      0.00000000	      0.00000000	      0.00000000
      1.82000000	      0.00000000	     -0.00000000	      0.00000000	      0.00000000	      0.00000000	      0.00000000	      0.00000000	      0.00000000	      0.00000000	      3.59558320	     31.94167519	   -396.07601929	   -386.44738057	  -1081.08774015	      0.00000000	      0.00000000	      0.00000000	    511.00148961	     -1.35752234	    -28.27630985	   -313.88732910	   -351.90517259	   -735.17748835	      0.00000000	      0.00000000	     -0.00000000	  -1736.81792353	      0.00000000	     -0.00000000	      0.00000000	      0.00000000	      0.00000000	      0.00000000	      0.00000000	      0.00000000	      0.00000000
      1.83000000	      0.00000000	     -0.00000000	      0.00000000	      0.00000000	      0.00000000	      0.00000000	      0.00000000	      0.00000000	      0.00000000	      4.62528753	     31.89503670	   -395.18301392	   -386.11330555	  -1081.87635347	      0.00000000	      0.00000000	      0.00000000	    687.05000837	     -0.25262841	    -27.22997282	   -307.20025635	   -352.27376351	   -736.43476923	      0.00000000	      0.00000000	     -0.00000000	  -1809.57528026	      0.00000000	     -0.00000000	      0.00000000	      0.00000000	      0.00000000	      0.00000000	      0.00000000	      0.00000000	      0.00000000
      1.84000000	      0.00000000	     -0.00000000	      0.00000000	      0.00000000	      0.00000000	      0.00000000	      0.00000000	      0.00000000	      0.00000000	      5.44869471	     31.01051712	   -388.93255615	   -387.81721179	  -1080.40926335	      0.00000000	      0.00000000	      0.00000000	    649.47600303	      0.96224602	    -26.36039552	   -301.21105957	   -352.30913365	   -736.31026715	      0.00000000	      0.00000000	     -0.00000000	  -1740.31809402	      0.00000000	     -0.00000000	      0.00000000	      0.00000000	      0.00000000	      0.00000000	      0.00000000	      0.00000000	      0.00000000
      1.85000000	      0.00000000	     -0.00000000	      0.00000000	      0.00000000	      0.00000000	      0.00000000	      0.00000000	      0.00000000	      0.00000000	      7.20575953	     30.49636841	   -384.25976562	   -388.54511261	  -1080.96499967	      0.00000000	      0.00000000	      0.00000000	    683.18025421	      1.69913295	    -25.59971824	   -293.09918213	   -352.69268253	   -736.86342807	      0.00000000	     -0.00000000	     -0.00000000	  -1748.08086268	      0.00000000	     -0.00000000	      0.00000000	      0.00000000	      0.00000000	      0.00000000	      0.00000000	      0.00000000	      0.00000000
      1.86000000	      0.00000000	     -0.00000000	      0.00000000	      0.00000000	      0.00000000	      0.00000000	      0.00000000	      0.00000000	      0.00000000	      8.18746376	     29.82495117	   -379.88796997	   -389.11263078	  -1080.19026790	      0.00000000	      0.00000000	      0.00000000	    382.91877233	      2.45648484	    -24.07808898	   -283.35232544	   -352.09218817	   -737.00118027	      0.00000000	      0.00000000	     -0.00000000	  -1587.19801434	      0.00000000	     -0.00000000	      0.00000000	      0.00000000	      0.00000000	      0.00000000	      0.00000000	      0.00000000	      0.00000000
      1.87000000	      0.00000000	     -0.00000000	      0.00000000	      0.00000000	      0.00000000	      0.00000000	      0.00000000	      0.00000000	      0.00000000	      9.92456341	     28.96738052	   -377.65963745	   -390.05630848	  -1080.93632805	      0.00000000	      0.00000000	      0.00000000	    546.31974444	      2.61392567	    -22.14897751	   -274.48736572	   -350.81724038	   -735.48014910	      0.00000000	      0.00000000	     -0.00000000	  -1469.45425357	      0.00000000	     -0.00000000	      0.00000000	      0.00000000	      0.00000000	      0.00000000	      0.00000000	      0.00000000	      0.00000000
      1.88000000	      0.00000000	     -0.00000000	      0.00000000	      0.00000000	      0.00000000	      0.00000000	      0.00000000	      0.00000000	      0.00000000	     11.12332916	     29.24875069	   -373.83056641	   -388.69343330	  -1080.44450467	      0.00000000	      0.00000000	      0.00000000	    790.56791810	      1.48855945	    -20.79692663	   -263.47817993	   -350.09687836	   -736.36072844	      0.00000000	      0.00000000	     -0.00000000	  -1369.47607938	      0.00000000	     -0.00000000	      0.00000000	      0.00000000	      0.00000000	      0.00000000	      0.00000000	      0.00000000	      0.00000000
